Coordinates
version=1
nRows=58
nColumns=8
inDegrees=yes

Units are S.I. units (second, meters, Newtons, ...)
If the header above contains a line with 'inDegrees', this indicates whether rotational values are in degrees (yes) or radians (no).

endheader
time	bJoint_1	bJoint_3	bJoint_4	seatpos	hipangle	kneeangle	footangle
      5.02000000	      0.00000000	      0.00000000	      0.00000000	     -0.31608801	     45.66530555	     96.93701993	     52.60232548
      5.04000000	      0.00000000	      0.00000000	     -0.00000000	     -0.31408808	     45.82943526	     96.60830953	     52.43774480
      5.06000000	      0.00000000	     -0.00000000	      0.00000000	     -0.31308809	     45.91169071	     96.44363156	     52.35532227
      5.08000000	      0.00000000	     -0.00000000	      0.00000000	     -0.31208810	     45.99407402	     96.27873674	     52.27281076
      5.10000000	      0.00000000	      0.00000000	      0.00000000	     -0.31108809	     46.07658637	     96.11362267	     52.19020904
      5.12000000	      0.00000000	      0.00000000	      0.00000000	     -0.30908815	     46.24198793	     95.78275722	     52.02474515
      5.14000000	      0.00000000	     -0.00000000	     -0.00000000	     -0.30808812	     46.32488731	     95.61698543	     51.94187273
      5.16000000	      0.00000000	     -0.00000000	     -0.00000000	     -0.30708813	     46.40791295	     95.45099979	     51.85891275
      5.18000000	      0.00000000	     -0.00000000	      0.00000000	     -0.30608814	     46.49106966	     95.28479069	     51.77586036
      5.20000000	      0.00000000	      0.00000000	      0.00000000	     -0.30408814	     46.65777680	     94.95170098	     51.60947778
      5.22000000	      0.00000000	      0.00000000	      0.00000000	     -0.30308817	     46.74132519	     94.78482436	     51.52614954
      5.24000000	      0.00000000	     -0.00000000	      0.00000000	     -0.30208816	     46.82501046	     94.61771255	     51.44272300
      5.26000000	      0.00000000	      0.00000000	      0.00000000	     -0.30108816	     46.90882792	     94.45037488	     51.35920280
      5.28000000	      0.00000000	     -0.00000000	      0.00000000	     -0.29908815	     47.07686601	     94.11500872	     51.19187473
      5.30000000	      0.00000000	      0.00000000	      0.00000000	     -0.29808821	     47.16108265	     93.94698815	     51.10807080
      5.32000000	      0.00000000	      0.00000000	      0.00000000	     -0.29708817	     47.24544309	     93.77871847	     51.02416156
      5.34000000	      0.00000000	     -0.00000000	      0.00000000	     -0.29608820	     47.32993439	     93.61022547	     50.94015986
      5.36000000	      0.00000000	     -0.00000000	      0.00000000	     -0.29408821	     47.49933249	     93.27252372	     50.77185622
      5.38000000	      0.00000000	      0.00000000	      0.00000000	     -0.29308822	     47.58423914	     93.10331526	     50.68755440
      5.40000000	      0.00000000	     -0.00000000	     -0.00000000	     -0.29208821	     47.66928646	     92.93386383	     50.60315029
      5.42000000	      0.00000000	     -0.00000000	     -0.00000000	     -0.29108823	     47.75447029	     92.76417774	     50.51864803
      5.44000000	      0.00000000	     -0.00000000	      0.00000000	     -0.29008823	     47.83979706	     92.59424413	     50.43404120
      5.46000000	      0.00000000	     -0.00000000	     -0.00000000	     -0.28808825	     48.01087361	     92.25364598	     50.26451959
      5.48000000	      0.00000000	     -0.00000000	      0.00000000	     -0.28708823	     48.09662798	     92.08297226	     50.17960024
      5.50000000	      0.00000000	      0.00000000	     -0.00000000	     -0.28608825	     48.18252125	     91.91205905	     50.09458030
      5.52000000	      0.00000000	      0.00000000	     -0.00000000	     -0.28508827	     48.26855972	     91.74089378	     50.00945350
      5.54000000	      0.00000000	      0.00000000	     -0.00000000	     -0.28308828	     48.44107419	     91.39780329	     49.83887747
      5.56000000	      0.00000000	      0.00000000	      0.00000000	     -0.28208828	     48.52755022	     91.22587797	     49.75342819
      5.58000000	      0.00000000	     -0.00000000	      0.00000000	     -0.28108829	     48.61417273	     91.05369804	     49.66787077
      5.60000000	      0.00000000	     -0.00000000	     -0.00000000	     -0.28008832	     48.70094160	     90.88126376	     49.58220536
      5.62000000	      0.00000000	      0.00000000	      0.00000000	     -0.27908829	     48.78786412	     90.70856061	     49.49642472
      5.64000000	      0.00000000	      0.00000000	      0.00000000	     -0.27708831	     48.96215076	     90.36238619	     49.32453695
      5.66000000	      0.00000000	      0.00000000	     -0.00000000	     -0.27608833	     49.04951900	     90.18890673	     49.23842573
      5.68000000	      0.00000000	     -0.00000000	     -0.00000000	     -0.27508830	     49.13704358	     90.01515311	     49.15219669
      5.70000000	      0.00000000	     -0.00000000	     -0.00000000	     -0.27408834	     49.22471462	     89.84114491	     49.06585953
      5.72000000	      0.00000000	      0.00000000	     -0.00000000	     -0.27308835	     49.31254174	     89.66686306	     48.97940480
      5.74000000	      0.00000000	     -0.00000000	      0.00000000	     -0.27108836	     49.48865917	     89.31748849	     48.80614765
      5.76000000	      0.00000000	     -0.00000000	     -0.00000000	     -0.27008836	     49.57695149	     89.14239176	     48.71934325
      5.78000000	      0.00000000	      0.00000000	     -0.00000000	     -0.26908838	     49.66539912	     88.96702297	     48.63242209
      5.80000000	      0.00000000	      0.00000000	      0.00000000	     -0.26808838	     49.75400573	     88.79137482	     48.54538055
      5.82000000	      0.00000000	     -0.00000000	     -0.00000000	     -0.26708839	     49.84277046	     88.61544905	     48.45821951
      5.84000000	      0.00000000	      0.00000000	     -0.00000000	     -0.26508840	     50.02077780	     88.26275769	     48.28353550
      5.86000000	      0.00000000	     -0.00000000	      0.00000000	     -0.26408841	     50.11002257	     88.08598788	     48.19601044
      5.88000000	      0.00000000	      0.00000000	      0.00000000	     -0.26308835	     50.19943546	     87.90892068	     48.10835614
      5.90000000	      0.00000000	      0.00000000	      0.00000000	     -0.26208842	     50.28899917	     87.73159039	     48.02058956
      5.92000000	      0.00000000	      0.00000000	     -0.00000000	     -0.26108843	     50.37873229	     87.55396021	     47.93269250
      5.94000000	      0.00000000	      0.00000000	      0.00000000	     -0.26008844	     50.46863049	     87.37603876	     47.84466925
      5.96000000	      0.00000000	     -0.00000000	      0.00000000	     -0.25808840	     50.64892927	     87.01930798	     47.66823724
      5.98000000	      0.00000000	      0.00000000	      0.00000000	     -0.25708846	     50.73932190	     86.84051440	     47.57983630
      6.00000000	      0.00000000	     -0.00000000	      0.00000000	     -0.25608846	     50.82988873	     86.66141162	     47.49130035
      6.02000000	      0.00000000	      0.00000000	     -0.00000000	     -0.25508848	     50.92062324	     86.48201253	     47.40263577
      6.04000000	      0.00000000	     -0.00000000	     -0.00000000	     -0.25408846	     51.01153253	     86.30230314	     47.31383566
      6.06000000	      0.00000000	      0.00000000	      0.00000000	     -0.25308849	     51.10260764	     86.12230117	     47.22490881
      6.08000000	      0.00000000	      0.00000000	     -0.00000000	     -0.25108851	     51.28528135	     85.76136825	     47.04664959
      6.10000000	      0.00000000	     -0.00000000	      0.00000000	     -0.25008851	     51.37687967	     85.58043789	     46.95731756
      6.12000000	      0.00000000	      0.00000000	     -0.00000000	     -0.24908852	     51.46865321	     85.39919655	     46.86784976
      6.14000000	      0.00000000	      0.00000000	     -0.00000000	     -0.24808853	     51.56060347	     85.21764127	     46.77824473
      6.16000000	      0.00000000	      0.00000000	     -0.00000000	     -0.24708853	     51.65273175	     85.03576952	     46.68850127
